<?xml version="1.0" encoding="utf-8"?>
<!-- Generator: Adobe Illustrator 15.0.0, SVG Export Plug-In . SVG Version: 6.00 Build 0)  -->
<!DOCTYPE svg PUBLIC "-//W3C//DTD SVG 1.1//EN" "http://www.w3.org/Graphics/SVG/1.1/DTD/svg11.dtd">
<svg version="1.1" id="Layer_1" xmlns="http://www.w3.org/2000/svg" xmlns:xlink="http://www.w3.org/1999/xlink" x="0px" y="0px"
	 width="240px" height="80px" viewBox="0 0 240 80" enable-background="new 0 0 240 80" xml:space="preserve">
<g id="guides" display="none">
</g>
<polygon points="168.065,70.498 156.49,58.924 168.065,58.924 "/>
<path d="M174.333,59.408H61V9.25h113.333V59.408z M72.535,33.632v-6.667h6.637v-3.982h-6.637v-3.493h8.83v-4.039H67.629v18.18
	H72.535z M100.785,15.452h-5.396l-3.665,5.107l-3.665-5.107h-5.743l6.464,8.887l-6.983,9.293h5.396l4.155-5.801l4.214,5.801h5.742
	l-6.984-9.581L100.785,15.452z M116.339,15.452h-4.414l-3.003,11.398h-0.114l-2.886-11.398h-4.907l4.762,18.18h5.138l3.029-11.486
	h0.116l3.029,11.486h5.223l4.763-18.18h-4.733l-2.887,11.398h-0.115L116.339,15.452z"/>
<g>
	<text transform="matrix(1 0 0 1 66.1504 43.0869)" fill="#8E8E8E" font-family="'OpenSans-Bold'" font-size="9.9351">AWARDS</text>
</g>
</svg>
