<?xml version="1.0" encoding="utf-8"?>
<!-- Generator: Adobe Illustrator 19.0.0, SVG Export Plug-In . SVG Version: 6.00 Build 0)  -->
<svg version="1.2" baseProfile="tiny" id="Layer_1" xmlns="http://www.w3.org/2000/svg" xmlns:xlink="http://www.w3.org/1999/xlink"
	 x="0px" y="0px" viewBox="-190 355.5 230.7 82.5" xml:space="preserve">
<path id="XMLID_4_" fill="#0D4D8B" d="M-145.7,396.1c-4.5-3.1-6.9-4.8-12.8-4.8c-7.2,0-13,6.4-13,14.2s5.8,14.2,13,14.2
	c5.6,0,7-0.5,13-4.6v14.1c-3.8,1.9-8.4,3-13,3c-15.3,0-27.7-12-27.7-26.8c0-14.8,12.4-26.8,27.7-26.8c4.6,0,9,1.1,12.8,3V396.1"/>
<rect id="XMLID_3_" x="-141.1" y="379.6" fill="#0D4D8B" width="13.9" height="51.7"/>
<path id="XMLID_1_" fill="#0D4D8B" d="M19.1,399.7c-1.8-0.7-7-2.3-7.8-2.6c-6.7-2.8-4.3-7.9,0.7-7.9c3.7,0,6.5,1.5,9,3.2v-12.3
	c-4.9-1.5-7.4-2-11.4-2C-1.2,378-6.8,386-6.8,394c0,5.6,4.3,11.8,9.4,13.7c4.5,1.6,5.2,1.9,7.8,2.8c5.3,1.8,5.4,9.5-1.9,9.5
	c-2.4,0-8.2-0.7-11.7-8.2l-20.6-52.3l-26.3,69.4v-37.3h10.9v-12H-84v30.8l-23.8-30.8v0h-13.9v51.7h13.9v-31.4l24.2,31.4h13.5v-39.8
	h6.1v39.8h27.8l3.2-10.1h15.5l-3.7-10.9h-8.4l5.7-16.8l7.7,21.4c4.9,13.1,14.1,17.6,24.3,17.6c10.3,0,20.7-6,20.7-18.4
	C29,405.2,23.8,401.6,19.1,399.7"/>
<path id="XMLID_2_" fill="#0D4D8B" d="M-134.1,376.9c4.3,0,7.9-3.5,7.9-7.9c0-4.3-3.5-7.9-7.9-7.9c-4.3,0-7.9,3.5-7.9,7.9
	C-142,373.3-138.4,376.9-134.1,376.9"/>
<path fill="#0D4D8B" d="M33,427.9c0.6,0,1.2,0,1.2-0.8c0-0.6-0.6-0.7-1.1-0.7h-1v1.5H33 M32.1,430.7h-0.8v-5h1.9
	c1.2,0,1.8,0.4,1.8,1.4c0,0.9-0.6,1.3-1.3,1.4l1.4,2.2h-0.8l-1.3-2.2h-0.9V430.7z M33.1,431.8c2,0,3.5-1.5,3.5-3.6
	c0-2.1-1.5-3.6-3.5-3.6c-2,0-3.5,1.5-3.5,3.6C29.5,430.3,31.1,431.8,33.1,431.8 M28.7,428.2c0-2.5,2-4.3,4.4-4.3
	c2.4,0,4.4,1.8,4.4,4.3c0,2.5-2,4.3-4.4,4.3C30.7,432.6,28.7,430.7,28.7,428.2"/>
</svg>
